<?xml version="1.0" encoding="utf-8"?>
<!-- Generator: Adobe Illustrator 23.0.3, SVG Export Plug-In . SVG Version: 6.00 Build 0)  -->
<svg version="1.1" id="katman_1" xmlns="http://www.w3.org/2000/svg" xmlns:xlink="http://www.w3.org/1999/xlink" x="0px" y="0px"
	 viewBox="0 0 28 49" style="enable-background:new 0 0 28 49;" xml:space="preserve">
<style type="text/css">
	.st0{fill-rule:evenodd;clip-rule:evenodd;fill:#0A0A0A;}
</style>
<path class="st0" d="M24.1,49H3.8C1.7,49,0,47.2,0,45.1V3.9C0,1.8,1.7,0,3.8,0h20.3C26.3,0,28,1.8,28,3.9v41.2
	C28,47.2,26.3,49,24.1,49z M25.7,3.9c0-0.8-0.7-1.6-1.5-1.6H3.8C3,2.3,2.3,3,2.3,3.9v32.6h23.4C25.7,36.5,25.7,3.9,25.7,3.9z
	 M25.7,38.8H2.3v6.3c0,0.8,0.7,1.6,1.5,1.6h20.3c0.8,0,1.5-0.7,1.5-1.6v-6.3H25.7z M15.7,43.8h-3.4c-0.6,0-1.2-0.5-1.2-1.2
	s0.5-1.2,1.2-1.2h3.4c0.6,0,1.2,0.5,1.2,1.2S16.3,43.8,15.7,43.8z M5.9,21.7h1.6l2-4.7c0.2-0.5,0.6-0.7,1.1-0.7s0.9,0.4,1,0.9
	l1.7,6.4l2.2-13.1c0.1-0.6,0.6-1,1.1-1c0.6,0,1,0.4,1.2,0.9L20,21.8h2.1c0.6,0,1.2,0.5,1.2,1.2c0,0.6-0.5,1.2-1.2,1.2h-3
	c-0.6,0-1-0.4-1.1-0.9l-1.2-6l-2,11.9c-0.1,0.5-0.5,0.9-1.1,1c0,0,0,0-0.1,0c-0.5,0-1-0.3-1.1-0.9l-2.2-8.2l-1,2.4
	C9.1,23.7,8.7,24,8.2,24H5.9c-0.6,0-1.2-0.5-1.2-1.2S5.2,21.7,5.9,21.7z"/>
</svg>
